<svg xmlns="http://www.w3.org/2000/svg" width="87.851" height="106.728" viewBox="0 0 87.851 106.728">
  <g id="Layer_x0020_1" transform="translate(-0.079 -0.223)">
    <g id="_1308234009168" transform="translate(0.079 0.223)">
      <path id="Path_6" data-name="Path 6" d="M13688,12389.164c.274.31.547.611.815.918.1-.148.313-.328.278-.439C13688.958,12389.164,13688.608,12388.979,13688,12389.164Z" transform="translate(-13645.701 -12350.809)" fill="#d3cca5" fill-rule="evenodd"/>
      <path id="Path_7" data-name="Path 7" d="M16682.715,12240c-.646.865-.576,1.3-.279,1.78C16682.324,12241.3,16682.891,12241,16682.715,12240Z" transform="translate(-16630.664 -12202.176)" fill="#d3cca5" fill-rule="evenodd"/>
      <path id="Path_8" data-name="Path 8" d="M22586.211,33005.465c-.818-.3-1.336-1.043-2.211-.2A2.482,2.482,0,0,0,22586.211,33005.465Z" transform="translate(-22514.211 -32902.883)" fill="#d3cca5" fill-rule="evenodd"/>
      <path id="Path_9" data-name="Path 9" d="M25366.838,31431.5c-.049.357.176.518.631.514.07-.025.234-.082.395-.137a4.2,4.2,0,0,0-.623-.574C25367.172,31431.258,25366.85,31431.414,25366.838,31431.5Z" transform="translate(-25288.443 -31334.168)" fill="#d3cca5" fill-rule="evenodd"/>
      <path id="Path_10" data-name="Path 10" d="M82.811,104.443a7.994,7.994,0,0,1-6.088-2.033,4.832,4.832,0,0,0-5.071-1.14c-4.033,1.573-6.944-.538-9.311-2.979-2.2-2.268-3.739-5.247-5.29-8.069-1.879-3.415-.757-6.511,1.672-9.237.822-.924,2.274-1.477,1.554-3.168a2.017,2.017,0,0,1,1.066-.584c2.438.192,4.87.473,7.305.726a3.32,3.32,0,0,1,.383.068c4.564,1.14,10.346,8.727,10.275,14.15a4.5,4.5,0,0,1-.47,1.965c-1.87,2.821-.448,4.886,1.422,6.823a23.879,23.879,0,0,0,2.753,2.114c.451.346.875.732,1.313,1.1A11.586,11.586,0,0,1,82.811,104.443ZM50.71,67.8c-2.494-2.806-5.2-4.9-9.317-4.71-1.35.062-2.942-.909-4.091-1.823a12.5,12.5,0,0,1-2.871-3.616c-1.792-3.143-3.464-6.357-5.087-9.592a21.113,21.113,0,0,1-1.082-3.171c.692-4.734,1.3-8.952,1.941-13.164a3.346,3.346,0,0,1,.476-.927,4.18,4.18,0,0,1,.844.763q4.682,7.366,9.317,14.759,6.67,10.694,13.279,21.434c1.357,2.2,2.642,4.441,3.94,6.678a1.868,1.868,0,0,1,.083.711c-.294-.068-.692-.031-.862-.213C55.067,72.577,52.854,70.219,50.71,67.8ZM26.918,41.436a.749.749,0,0,1-.5.479.741.741,0,0,1-.624-.278c-1.381-2.472-3.1-4.842-2.605-7.951.29-2.3.5-4.614.9-6.894.232-1.3-.612-2.812.729-3.9a23.781,23.781,0,0,1,2.7,3.177A6.4,6.4,0,0,1,28.692,29.6C28.284,33.566,27.551,37.5,26.918,41.436Zm-4.883-9.061c-.315-.2-.751-.334-.924-.624-1.388-2.33-2.8-4.648-4.057-7.049-1.972-3.776-3.838-7.608-5.72-11.428C9.965,10.494,9.5,7.639,10.79,4.687c.195-.445.454-.859.683-1.286a4.648,4.648,0,0,1,1.094.884c1.789,2.689,3.523,5.414,5.3,8.112,1.066,1.616,2.135,3.232,3.269,4.8a9.884,9.884,0,0,1,2.04,5.553c-.29,3.266-.516,5.961-.779,8.653A3.925,3.925,0,0,1,22.035,32.376Zm-.266,54.54c-.015,4.642-3.7,9.889-7.648,11.258a6.5,6.5,0,0,1-5.915-.739A9.832,9.832,0,0,1,4.721,86.474a12.242,12.242,0,0,1,6.208-7.1,3.625,3.625,0,0,1,3.668-.022c1.44.85,3.028,1.477,4.382,2.441C20.842,83.124,22.159,84.864,21.769,86.916Zm64.889,15.77a20.607,20.607,0,0,1-2.163-.816A29.623,29.623,0,0,1,80.311,98.5a2.027,2.027,0,0,1-.09-3.087c1.907-2.129,1.876-4.846,1.248-7.383-1.36-5.522-9.805-14.6-16.829-13.217-2.058.4-3.041-.735-4-2.3-2.228-3.643-4.58-7.216-6.891-10.816-1.119-1.743-2.237-3.483-3.384-5.21a1.8,1.8,0,0,1,.056-2.392c8.025-11.527,14.255-24.03,19.629-36.969,1.236-2.973,2.509-5.992,2.608-9.4C72.258,5.982,71.97,4.19,71.4,2.5A3.44,3.44,0,0,0,69.69.515a3.654,3.654,0,0,0-2.824.229c-.445.272-.5,1.625-.309,2.389a13.471,13.471,0,0,0,1.363,2.318,4.281,4.281,0,0,1,.195,1.36,2.7,2.7,0,0,1-1.026-.022c-1.094-.5-2.33-1.134-3.078.207-.717,1.286.476,2.111,1.335,2.9.1.087.26.155.284.256.142.572.25,1.15.371,1.727a5.538,5.538,0,0,1-1.625-.083c-.46-.158-.785-.794-1.239-.887-.664-.136-1.7-.235-2.009.13a2.238,2.238,0,0,0-.1,2.061,18.569,18.569,0,0,0,2.077,2.278,1.049,1.049,0,0,1,.065,1c-.306.334-.909.776-1.214.671-.964-.334-1.808-1.078-2.781-1.316-.624-.151-1.4.306-2.1.491a15.438,15.438,0,0,0,.572,2.083c.476,1.116,3.01,1.258,2.083,2.732-1.066,1.693-2.333-.627-3.606-.63a2,2,0,0,0-1.375.38,1.514,1.514,0,0,0-.124,1.394c.368.658,1.072,1.122,1.474,1.768a5.311,5.311,0,0,1,.408,1.588,5.467,5.467,0,0,1-1.394-.074c-1.026-.324-2-1.724-3.1-.491-1.248,1.4.142,2.293.961,3.248a5,5,0,0,1,.519.958,5.921,5.921,0,0,1-1.366-.015c-1.255-.3-2.658-1.9-3.668.1-.794,1.57.637,2.256,1.749,2.951.674.417,1.332.884.779,1.848-.584,1.017-1.214.64-1.87.093a5.051,5.051,0,0,0-.637-.451c-.949-.562-1.907-.933-2.735.176-.7.939-.006,1.669.392,2.469.51,1.026,2.923,1.366,1.6,2.883-.905,1.035-1.823-.912-2.892-1.15-.121-.028-.232-.182-.34-.173-.7.059-1.6-.093-2.07.281-.828.658-.627,1.647.053,2.407a23.52,23.52,0,0,0,1.965,1.879,1.942,1.942,0,0,1,.275,2.781c-.365.587-.887.992-1.452.167-.658-.964-1.282-1.947-1.925-2.92C37.573,36.773,33.846,31.01,30,25.33c-1.814-2.682-3.962-5.136-5.766-7.824-3.4-5.049-6.78-10.117-9.917-15.331C12.474-.887,10.8.111,9.251,2.048A7.894,7.894,0,0,0,7.758,5.574a13.1,13.1,0,0,0,.977,8.35c2.831,5.538,5.593,11.106,8.393,16.66.93,1.845,1.9,3.668,2.828,5.513,1.391,2.778,2.713,5.593,4.15,8.35,1.313,2.528,2.713,5.015,4.125,7.488a2.743,2.743,0,0,1-.053,3.214C24.214,61.375,20.363,67.676,16.4,73.9a2.343,2.343,0,0,1-1.811.98c-4.57-.634-7.8,1.74-10.464,4.864-5.816,6.82-5.207,14.11.813,20.111a10.121,10.121,0,0,0,11.527,1.69,18.728,18.728,0,0,0,8.269-9.02,11.567,11.567,0,0,0,.213-9.444,3.2,3.2,0,0,1,.64-3.81c2.8-3.405,5.76-6.681,8.421-10.185,1.792-2.364,3.353-4.4,6.78-2.8.958.448,2.318-.037,3.467.1a3.449,3.449,0,0,1,2.018.862c3.235,3.535,6.363,7.169,9.577,10.72a1.428,1.428,0,0,1,.08,2.247c-2.787,3.631-3,7.574-1.091,11.7a24.019,24.019,0,0,0,6.279,8.8c3.557,2.9,7.429,5.507,12.327,2.685.763-.439,1.153-.025,1.632.439a11.592,11.592,0,0,0,1.777,1.508,9.389,9.389,0,0,0,9.951.34,2.7,2.7,0,0,0,1.122-1.811C87.978,103.544,87.177,102.963,86.658,102.685Z" transform="translate(-0.079 -0.223)" fill="#f3f0df" fill-rule="evenodd"/>
      <path id="Path_11" data-name="Path 11" d="M12570.047,17410.121a2.827,2.827,0,0,0-2.429,2.154,3.414,3.414,0,0,0,2.41,3.516,2.215,2.215,0,0,0,2.327-2.061C12572.5,17412.111,12571.32,17410.264,12570.047,17410.121Z" transform="translate(-12528.752 -17356.314)" fill="#f3f0df" fill-rule="evenodd"/>
      <path id="Path_12" data-name="Path 12" d="M18798.139,25916.736c-1.268,2.031-3.127,2.52-4.889.982a49.282,49.282,0,0,1-5.744-6.219,5.107,5.107,0,0,1-.826-2.9c-.119-3.8.811-4.178,4.289-4.4,3.438-.219,8.41,5.393,8.357,9.629A14.96,14.96,0,0,1,18798.139,25916.736Zm-4.793-14.4c-2.627-.98-5.322-1.1-7.225.859-2.2,2.256-2.437,5.3-1.189,8.3a7.486,7.486,0,0,0,1.08,2.043,48.464,48.464,0,0,0,4.934,5.408c3.9,3.365,8.277,2.2,10.176-2.588a12.572,12.572,0,0,0,.566-2.682C18801.621,25908.828,18797.709,25903.959,18793.346,25902.334Z" transform="translate(-18726.131 -25821.602)" fill="#f3f0df" fill-rule="evenodd"/>
    </g>
  </g>
</svg>
