<svg xmlns="http://www.w3.org/2000/svg" width="14" height="22" viewBox="0 0 14 22">
  <g id="ic-facebook" transform="translate(-9.755 0)">
    <path id="Path_22" data-name="Path 22" d="M21.466,3.932h2.289V0H19.6c-.347-.014-4.576-.09-5.672,3.842A9.709,9.709,0,0,0,13.558,7l-3.8.011v4.122l3.808-.01V22h5.816V11.137h3.849V7H19.379V5.7C19.379,4.9,19.741,3.932,21.466,3.932Zm.8,3.977v2.322H18.416V21.094H14.525V10.219l-3.808.01V7.918l3.818-.01-.01-.46a10.044,10.044,0,0,1,.317-3.334C15.788.728,19.4.9,19.555.907h3.238v2.12H21.466c-2.249,0-3.05,1.382-3.05,2.676V7.909Z" transform="translate(0 0)" fill="#fff"/>
  </g>
</svg>
