<svg xmlns="http://www.w3.org/2000/svg" width="27.842" height="21.088" viewBox="0 0 27.842 21.088">
  <g id="ic-youtube" transform="translate(0.001 0)">
    <path id="Path_25" data-name="Path 25" d="M198.769,110.029l-6.151-3.366a1.13,1.13,0,0,0-1.672.991v6.673a1.128,1.128,0,0,0,1.665.995l6.151-3.308a1.13,1.13,0,0,0,.007-1.986Zm-6.192,3.459V108.5l4.6,2.515Zm0,0" transform="translate(-180.563 -100.731)" fill="#fff"/>
    <path id="Path_26" data-name="Path 26" d="M27.636,4.977V4.964a6.367,6.367,0,0,0-1.227-3.231,4.53,4.53,0,0,0-3-1.407L23.269.31,23.22.3c-3.681-.268-9.24-.3-9.3-.3h-.01C13.86,0,8.3.037,4.587.3L4.538.31l-.13.016a4.416,4.416,0,0,0-2.983,1.45A6.673,6.673,0,0,0,.207,4.949l0,.028C.2,5.07,0,7.29,0,9.519V11.6c0,2.229.2,4.449.2,4.542v.014A6.3,6.3,0,0,0,1.428,19.35a4.623,4.623,0,0,0,3.1,1.387c.113.013.211.024.277.036l.064.009c2.125.2,8.789.3,9.071.306h.017c.056,0,5.614-.037,9.295-.3l.049-.005.156-.018a4.314,4.314,0,0,0,2.957-1.415,6.672,6.672,0,0,0,1.217-3.173l0-.028c.008-.093.2-2.313.2-4.542V9.519c0-2.229-.2-4.448-.2-4.542ZM26.21,11.6c0,2.063-.18,4.187-.2,4.382a5.18,5.18,0,0,1-.8,2.26,2.683,2.683,0,0,1-1.926.893l-.174.02c-3.56.257-8.909.3-9.155.3-.276,0-6.842-.1-8.9-.3-.106-.017-.22-.03-.34-.044a3.051,3.051,0,0,1-2.087-.872l-.015-.016a4.7,4.7,0,0,1-.785-2.238c-.013-.147-.2-2.3-.2-4.389V9.519c0-2.06.18-4.183.2-4.382a5.074,5.074,0,0,1,.8-2.261,2.815,2.815,0,0,1,1.966-.931l.133-.016c3.612-.259,9-.3,9.193-.3s5.579.04,9.159.3l.144.017a2.922,2.922,0,0,1,2,.905l.007.007a4.776,4.776,0,0,1,.785,2.27c.012.139.2,2.293.2,4.389Zm0,0" fill="#fff"/>
  </g>
</svg>
