<svg xmlns="http://www.w3.org/2000/svg" width="56.061" height="101.76" viewBox="0 0 56.061 101.76">
  <g id="Layer_x0020_1" transform="translate(-0.365 0.327)">
    <path id="Path_21" data-name="Path 21" d="M41.161,89.869c-6.854,2.021-13.542,1.433-20.294.384A31.843,31.843,0,0,1,13.2,87.777c-5.032-2.2-7-6.688-8.324-11.432-1.818-6.5.26-12.613,2.822-18.462,1.293-2.95,4.395-4.653,7.183-6.333.632-.375,1.671-.152,2.523-.152,3.856-.014,7.712,0,11.573,0v.038c4,0,8.006.062,12-.033a4.748,4.748,0,0,1,3.866,1.788c6.08,6.053,7.849,13.676,8.584,21.578C54.018,81.188,47.653,87.957,41.161,89.869Zm-2.151,8.79c-1.69.157-3.41.033-5.424.033-4.375-.294-9.059-.569-13.733-.963a7.318,7.318,0,0,1-2.783-.939c-1.558-.854-1.352-2.438-.97-3.7.456-1.508,1.666-.228,2.464-.152,3.954.37,7.878,1.091,11.837,1.3a58.434,58.434,0,0,0,8.06-.564c1.323-.109,2.185.185,2.244,1.712C40.789,97.5,40.422,98.521,39.011,98.658ZM3.915,11.913c-.157-.379-.465-.707-.6-1.091-.647-1.8-.152-3.8,1.044-3.98,1.69-.251,2.577,1.02,3.337,2.135.431.626.269,1.608.544,2.372a24.968,24.968,0,0,0,1.935,4.521,2.056,2.056,0,0,0,2.9.944,3.715,3.715,0,0,0,1.269-2.367c.279-1.916-.892-3.4-1.974-4.881-1.7-2.324-1.622-4.17.1-6.333.666-.84,1.553-.944,2.161-.223a16.877,16.877,0,0,1,2.788,4.1c.862,2.021,1.21,4.245,1.97,6.318a2.453,2.453,0,0,0,1.656,1.437c1.24.057,1.553-.968,1.46-2.04-.127-1.508-.372-3.012-.4-4.516A6.382,6.382,0,0,1,22.548,5.5,19.437,19.437,0,0,1,24.68,2.563a20.782,20.782,0,0,1,2.239,2.813c.735,1.328,1.186,2.8,1.793,4.2a6.592,6.592,0,0,0,1.156,2.187,6.781,6.781,0,0,0,2.175.925c.279-.731.96-1.589.764-2.163-.877-2.543-.069-4.582,1.509-6.546a3.829,3.829,0,0,1,4.116-1.546c1.308.318,2.709,2.955,2.425,4.473-.23,1.21-.706,2.381-.936,3.591a5.321,5.321,0,0,0-.034,2.467,3.8,3.8,0,0,0,1.426,2.272c1.225.593,2.249-.413,2.7-1.4a14.139,14.139,0,0,0,1.019-3.947A8.036,8.036,0,0,0,44.8,7.018a2.117,2.117,0,0,1,1.4-2.666,2.366,2.366,0,0,1,3.008.863,10.756,10.756,0,0,1,2.254,10.83c-1.818,5.939-3.542,11.906-5.091,17.916-.892,3.463-1.352,7.03-2.023,10.545a13.877,13.877,0,0,1-.48,2,3.58,3.58,0,0,1-4.973,2.154c-.382-.166-.652-.825-.75-1.3a6.267,6.267,0,0,1,.093-1.646c-.088-.014-.181-.033-.269-.047.813-4.468,1.646-8.937,2.42-13.415a4.189,4.189,0,0,0-.323-1.461c-.529.351-1.4.612-1.524,1.067C37.5,35.716,36.59,39.6,35.689,43.491a20.488,20.488,0,0,0-.122,2.068c-.348,3-.578,3.2-3.684,3.254-.853.014-1.715-.057-2.567.009-1.72.142-2.229-.693-2.219-2.22a15.081,15.081,0,0,0-.412-3.268,1.249,1.249,0,0,0-.867-.8,1.2,1.2,0,0,0-.887.754c-.162,1.357-.118,2.742-.289,4.1-.049.427-.539.8-.823,1.2-.26-.413-.706-.806-.745-1.238-.348-3.709-.617-7.419-.921-11.128a3.575,3.575,0,0,0-.269-1.613,2.985,2.985,0,0,0-1.5-1.086c-.171-.057-.926.745-.926,1.157-.02,1.788.113,3.581.245,5.37.162,2.2.363,4.4.573,6.589.147,1.546-.421,2.367-2.151,2.22a20.171,20.171,0,0,0-2.141.019c-1,.019-1.578-.346-1.6-1.418C14.062,34.739,8.6,23.43,3.915,11.913ZM56.4,75.064c-.372-8.647-2.239-16.721-9.123-22.878-1.445-1.295-1.269-2.747-1.009-4.179.8-4.473,1.6-8.965,2.734-13.367,1.543-6.01,3.381-11.949,5.12-17.916A13.4,13.4,0,0,0,52.048,4.508C49.647,1.24,48.29.842,44.371,2.317a1.911,1.911,0,0,1-2.724-.783,4.517,4.517,0,0,0-2.636-1.75c-2.768-.332-5.468-.047-7.085,2.69a20.881,20.881,0,0,1-1.2,1.717c-.465.626-.911.489-1.269-.095-.51-.83-.941-1.708-1.48-2.524a3.658,3.658,0,0,0-6.051-.512,10.946,10.946,0,0,0-.916,1.39c-1.475,2.263-1.47,2.263-3.111.218a9.517,9.517,0,0,0-1.362-1.575,4.213,4.213,0,0,0-6.325.854,5.435,5.435,0,0,0-.828,1.447C8.879,4.94,8.09,5.021,6.5,4.537,2.436,3.3.172,5.12.378,9.271a12.379,12.379,0,0,0,.853,3.581c.529,1.423,1.338,2.751,1.886,4.17,4,10.331,7.756,20.729,9.275,31.749.235,1.717-.426,2.519-1.788,3.278a13.063,13.063,0,0,0-6.791,8.643c-.627,2.68-1.249,5.365-2.048,8C-.156,75.021,3.92,86.847,10.8,89.911c2.239.991,2.631,2.4,2.509,4.6-.211,3.7,1.612,5.545,5.473,5.906,4.253.4,8.515.683,12.778,1.02,0-.1.01-.2.015-.308,2.43,0,4.86.024,7.286,0a3.92,3.92,0,0,0,4.013-3.112,7.563,7.563,0,0,0,.392-2.837c-.211-1.76.617-2.571,2.023-3.624a66.4,66.4,0,0,0,8.461-7.556C56.046,81.548,56.546,78.37,56.4,75.064Z" transform="translate(0 0)" fill="#f3f0df" fill-rule="evenodd"/>
  </g>
</svg>
