<svg xmlns="http://www.w3.org/2000/svg" width="133.691" height="73.733" viewBox="0 0 133.691 73.733">
  <g id="Layer_x0020_1" transform="translate(0.315 -0.129)">
    <g id="_1308234036432" transform="translate(-0.315 0.129)">
      <path id="Path_14" data-name="Path 14" d="M51617.742,32271.242c.27-.492.676-.926.582-1.121a1.629,1.629,0,0,0-1.617-1.109,1.254,1.254,0,0,0-1.246,1.594C51615.758,32273.035,51617.211,32269.16,51617.742,32271.242Z" transform="translate(-51502.68 -32212.313)" fill="#d3cca5" fill-rule="evenodd"/>
      <path id="Path_15" data-name="Path 15" d="M58860.766,35514.82a1.3,1.3,0,0,0-1.766-.414C58859.4,35515.2,58859.922,35515.3,58860.766,35514.82Z" transform="translate(-58731.535 -35453.203)" fill="#d3cca5" fill-rule="evenodd"/>
      <path id="Path_16" data-name="Path 16" d="M48343.336,35957.051c.094-.355-.2-.457-.492-.5s-.59-.008-.656.324.121.5.625.48A.458.458,0,0,0,48343.336,35957.051Z" transform="translate(-48237.75 -35894.621)" fill="#d3cca5" fill-rule="evenodd"/>
      <path id="Path_17" data-name="Path 17" d="M21049.318,21251.871c-.42.24-.285.576.135.781,0,1.988,1.1.426,1.705.5-.283-.314-.564-.627-.85-.941C21050.172,21251.553,21049.658,21251.674,21049.318,21251.871Z" transform="translate(-21003.574 -21214.342)" fill="#d3cca5" fill-rule="evenodd"/>
      <path id="Path_18" data-name="Path 18" d="M128.922,67c-2.526,2.511-6.125,3.214-8.838,3.733-4.411.085-7.079-1.465-9.782-2.893-1.073-.568-2-1.318-3.007-1.97-1.533-.994-1.539-.987.361-1.9a15.61,15.61,0,0,0,2.068-1.015c1.263-.863,2.377-2.448,3.672-2.536,1.192-.079,2.552,1.407,3.819,2.22a9.277,9.277,0,0,0,9,1.082c.9-.355,2.148-1.064,3.053-.011C130.215,64.813,129.92,66.008,128.922,67ZM99.158,62.61a73.273,73.273,0,0,1-9.1.981c-6.278.342-12.567.635-18.856.762s-12.608.028-18.912.028c0,.046,0,.092,0,.139-12.917-.284-25.833-.514-38.745-.909A19.041,19.041,0,0,1,7.09,62.254C4.366,61.137,2.945,59.329,3.3,56.47c.859-7.012,4.717-10.293,13.275-10.243a130.945,130.945,0,0,1,14.436.9,181.267,181.267,0,0,0,22.644,1.431c5.5-.046,11,.21,16.487.018,5.622-.2,11.215-.867,16.835-1.158,5.149-.266,10.324-.514,15.471-.376,4.408.118,8.9,3.941,8.687,7.372a7.008,7.008,0,0,1-4.724,6.076A37.709,37.709,0,0,1,99.158,62.61Zm-41.407-26.9c-1.47-.785-1.85-1.475-.861-2.87,3.059-4.306,2.971-4.338,8.148-1.362q10.058,5.779,20.125,11.549a12.044,12.044,0,0,1,1.364,1.047,19.947,19.947,0,0,1-2.049.471c-2.37.3-4.752.551-7.794.9a12.565,12.565,0,0,1-2.45-.815C68.715,41.683,63.262,38.659,57.751,35.708Zm-7.9.664c-1.444,1.677-3.374,1.634-5.581,1.13-4.257-.976-4.855-1.622-4.719-5.19a40.386,40.386,0,0,0-.343-4.691c-.481,1.414-.918,2.838-1.466,4.234-.22.559-.62,1.428-1.066,1.486a2.81,2.81,0,0,1-2.055-.748,6.221,6.221,0,0,1-.948-1.964c.723-5.138,1.36-9.712,2.023-14.285.11-.759.592-.75,1.3-.364Q46.445,21.16,55.933,26.3c1.248.672,1.319,1.37.531,2.294C54.257,31.182,52.079,33.79,49.856,36.372ZM31.87,28.194a3.045,3.045,0,0,1-.961,1.982c-.648.447-2.927-.967-3.066-1.961-.285-2.075-.4-4.165-.546-5.879.266-3.625.479-6.89.8-10.15.024-.231.967-.676,1.246-.575,3.992,1.414,4.857,2.974,4.16,6.484C32.837,21.445,32.457,24.833,31.87,28.194ZM26.119,11.906c-.3,1.954-.663,3.906-.775,5.868-.149,2.628-.071,5.265-.119,7.9-.019.99-.494,1.567-1.7.807-5.993-3.77-12.152-7.37-17.366-11.908-1.9-1.657-2.414-3.588-1.112-5.427a28.11,28.11,0,0,1,5.112-5.159c.624-.517,2.064-.471,3.135-.492a6.783,6.783,0,0,1,1.768.582c3.234.937,5.391,2.413,4.108,5.621.138.867.248,1.772.453,2.661.035.152.484.355.71.334.242-.023.63-.274.646-.445.13-1.306.117-2.624.322-3.922.041-.261,1.017-.724,1.235-.623C24.515,8.628,26.466,9.62,26.119,11.906Zm99.95,48.846c-2.671.748-4.963.939-7.219-.649a19.21,19.21,0,0,0-3.167-1.816,1.453,1.453,0,0,1-1-1.888c.807-5.792-3.228-10.82-10.08-12.213a40.837,40.837,0,0,0-8.167-.379,10.259,10.259,0,0,1-5.4-1.31c-7.023-3.987-14.2-7.794-21.237-11.759-13.02-7.338-25.932-14.8-39-22.084C25.877,5.911,20.7,3.463,15.56,1A7.632,7.632,0,0,0,6.784,2.2,39.23,39.23,0,0,0,2.662,6.574c-2.992,3.542-2.934,6.458.725,9.606a81.166,81.166,0,0,0,10.037,7.4C20.87,28.21,28.5,32.641,36.136,37.067a35.446,35.446,0,0,0,6.306,2.854c3.841,1.306,7.571,1.474,10.414-1.682.989-1.1,2.081-.985,3.327-.256,4.02,2.347,8.066,4.663,12.1,6.991-12.56.357-24.946.87-37.282-.7a106.628,106.628,0,0,0-14.87-1.114c-6.032.086-11.287,1.918-14.611,6.493C-.334,52.206.109,54.956-.263,57.69c-.566,4.181,3.5,8.092,9.5,8.994a78.407,78.407,0,0,0,9.616.672c4.652.12,9.313.069,13.97.083l46.528.131a121.524,121.524,0,0,0,19.2-1.435,5.851,5.851,0,0,1,4.752,1.145,59.56,59.56,0,0,0,8.294,4.762c7.053,3.482,13.825,1.541,19.072-2.234a6.239,6.239,0,0,0,2.7-4.933C133.514,61.656,130.038,59.64,126.068,60.752Z" transform="translate(0.315 -0.129)" fill="#f3f0df" fill-rule="evenodd"/>
      <path id="Path_19" data-name="Path 19" d="M3466.23,27428.172a20.2,20.2,0,0,0-2.255-.777,3.726,3.726,0,0,0-1.35.137,173.1,173.1,0,0,1-35.718,1.891c-9.691-.393-19.379-.828-29.07-1.244a5.174,5.174,0,0,1-1.356-.078c-3.351-1.15-6.648-.121-9.875.447-3.179.561-6.1,1.975-7.345,5.375a1.358,1.358,0,0,0,.183,1.186,1.154,1.154,0,0,0,1.115-.113c2.938-4.7,7.681-4.932,12.425-4.977,3.637-.033,7.283.119,10.917.332,9.821.572,19.637,1.223,28.941,1.811,7.35-.426,14.161-.713,20.95-1.262,3.6-.291,7.178-.988,10.749-1.605C3465.148,27429.188,3465.669,27428.557,3466.23,27428.172Z" transform="translate(-3372.34 -27379.701)" fill="#f3f0df" fill-rule="evenodd"/>
      <path id="Path_20" data-name="Path 20" d="M44657.781,29136.9a3.6,3.6,0,0,0-3.871,3.553,3.2,3.2,0,0,0,3.488,3.254c2.5-.018,3.723-1.166,3.73-3.492C44661.141,29138.016,44660.031,29136.914,44657.781,29136.9Z" transform="translate(-44557.156 -29086.146)" fill="#f3f0df" fill-rule="evenodd"/>
    </g>
  </g>
</svg>
